<svg width="86" height="78" viewBox="0 0 86 78" fill="none" xmlns="http://www.w3.org/2000/svg">
<path d="M27.5378 0.600098C9.33338 18.2356 0.800049 37.009 0.800049 53.7912C0.800049 67.4445 11.04 77.4001 21.2801 77.4001C30.3823 77.4001 37.7778 70.0045 37.7778 60.9023C37.7778 49.2401 29.2445 43.2667 16.7289 43.2667C16.7289 29.329 20.9956 21.0801 34.3645 7.42676L27.5378 0.600098ZM75.0401 0.600098C56.8356 18.2356 48.3023 37.009 48.3023 53.7912C48.3023 67.4445 58.5423 77.4001 68.7823 77.4001C77.8845 77.4001 85.2801 70.0045 85.2801 60.9023C85.2801 49.2401 76.7467 43.2667 64.2312 43.2667C64.2312 29.329 68.4978 21.0801 81.8667 7.42676L75.0401 0.600098Z" fill="#FFFBF4"/>
</svg>
